<?xml version="1.0"?>
<svg width="195" height="37" xmlns="http://www.w3.org/2000/svg" xmlns:svg="http://www.w3.org/2000/svg" xmlns:xlink="http://www.w3.org/1999/xlink" version="1.0">
 <style type="text/css">.st0{fill:url(#SVGID_1_);}
	.st1{fill:url(#SVGID_2_);}
	.st2{fill:#24384C;}</style>
 <defs>
  <symbol id="svg_34" viewBox="0 0 195 37" xmlns="http://www.w3.org/2000/svg" xmlns:xlink="http://www.w3.org/1999/xlink">
   <style type="text/css">.st0{fill:#0898E7;}
	.st1{fill:#FAAE1B;}
	.st2{fill:#24384C;}</style>
   <g id="svg_1">
    <path class="st0" d="m11.2,32.8l20.3,-14.4l-20.3,-14.4l0,28.8z" id="svg_2"/>
    <g id="svg_3">
     <polygon class="st1" id="svg_4" points="41.7,18.4 21.4,4 21.4,9.2 34.4,18.4 21.4,27.6 21.4,32.8   "/>
    </g>
   </g>
   <g id="svg_23">
    <g id="svg_24">
     <path class="st2" d="m50.5,29.3c-1.5,-0.5 -2.7,-1.1 -3.7,-1.9l1.3,-2.9c1.1,0.8 2.2,1.4 3.3,1.8c1.2,0.4 2.4,0.6 3.8,0.6c1.5,0 2.7,-0.3 3.5,-0.8c0.8,-0.5 1.2,-1.3 1.2,-2.2c0,-0.8 -0.4,-1.5 -1.1,-1.9c-0.8,-0.4 -2,-0.8 -3.8,-1.2c-1.8,-0.4 -3.3,-0.8 -4.4,-1.4c-1.1,-0.5 -2,-1.2 -2.6,-2s-0.9,-1.8 -0.9,-3.1s0.4,-2.4 1.1,-3.5c0.7,-1 1.7,-1.8 3,-2.4c1.3,-0.6 2.8,-0.9 4.4,-0.9c1.5,0 3,0.2 4.4,0.7s2.5,1.1 3.4,1.9l-1.3,2.9c-1.9,-1.6 -4.1,-2.3 -6.5,-2.3c-1.4,0 -2.5,0.3 -3.3,0.9c-0.8,0.6 -1.2,1.4 -1.2,2.4c0,0.8 0.4,1.5 1.1,2c0.7,0.5 2,0.9 3.7,1.3c1.8,0.4 3.3,0.9 4.5,1.4c1.2,0.5 2,1.2 2.6,1.9c0.6,0.8 0.9,1.8 0.9,3c0,1.3 -0.3,2.5 -1,3.4c-0.7,1 -1.7,1.7 -3,2.3c-1.3,0.5 -2.9,0.8 -4.6,0.8c-1.7,-0.1 -3.3,-0.3 -4.8,-0.8z" id="svg_33"/>
     <path class="st2" d="m76.3,27l-0.2,2.9c-0.6,0.1 -1.2,0.1 -1.7,0.1c-2.1,0 -3.7,-0.5 -4.7,-1.5s-1.5,-2.5 -1.5,-4.4l0,-6.6l-2.9,0l0,-2.9l2.9,0l0,-4.5l3.9,0l0,4.5l4,0l0,2.9l-4,0l0,6.6c0,2 0.9,3 2.8,3c0.4,-0.1 0.9,-0.1 1.4,-0.1l0,0z" id="svg_32"/>
     <path class="st2" d="m89.8,15.7c1,1 1.6,2.6 1.6,4.8l0,9.2l-3.7,0l0,-2.3c-0.4,0.8 -0.9,1.4 -1.7,1.9c-0.8,0.5 -1.6,0.7 -2.6,0.7s-1.9,-0.2 -2.8,-0.6c-0.8,-0.4 -1.5,-1 -2,-1.7s-0.7,-1.5 -0.7,-2.4c0,-1.1 0.3,-2 0.9,-2.6s1.5,-1.1 2.8,-1.4s3.1,-0.4 5.3,-0.4l0.8,0l0,-0.7c0,-1 -0.2,-1.8 -0.7,-2.2c-0.4,-0.7 -1.2,-0.9 -2.2,-0.9c-0.8,0 -1.7,0.1 -2.5,0.4c-0.9,0.3 -1.7,0.7 -2.6,1.2l-1.1,-2.7c0.8,-0.5 1.9,-1 3.1,-1.3s2.3,-0.5 3.4,-0.5c2.1,-0.1 3.7,0.5 4.7,1.5l0,0zm-3.1,10.4c0.7,-0.7 1,-1.6 1,-2.7l0,-0.7l-0.6,0c-1.4,0 -2.5,0.1 -3.2,0.2c-0.8,0.1 -1.3,0.3 -1.6,0.7c-0.3,0.3 -0.5,0.7 -0.5,1.3c0,0.7 0.2,1.2 0.7,1.6s1,0.6 1.7,0.6c1,0.1 1.9,-0.3 2.5,-1z" id="svg_31"/>
     <path class="st2" d="m105.3,17.4l-2.3,0.2c-2.6,0.3 -3.9,1.6 -3.9,3.9l0,8.2l-3.9,0l0,-15.2l3.7,0l0,2.7c0.8,-1.8 2.4,-2.8 4.9,-3l1.2,-0.1l0.3,3.3z" id="svg_30"/>
     <path class="st2" d="m117.8,27l-0.2,2.9c-0.6,0.1 -1.2,0.1 -1.7,0.1c-2.1,0 -3.7,-0.5 -4.7,-1.5s-1.5,-2.5 -1.5,-4.4l0,-6.6l-2.9,0l0,-2.9l2.9,0l0,-4.5l3.9,0l0,4.5l4,0l0,2.9l-4,0l0,6.6c0,2 0.9,3 2.8,3c0.5,-0.1 0.9,-0.1 1.4,-0.1l0,0z" id="svg_29"/>
     <path class="st2" d="m135.2,7.8l3.8,0l0,21.9l-3,0l-11.7,-15.3l0,15.3l-3.7,0l0,-21.9l3,0l11.7,15.3l0,-15.3l-0.1,0z" id="svg_28"/>
     <path class="st2" d="m156.7,22.8l-10.4,0c0.1,1.4 0.5,2.5 1.3,3.1c0.7,0.7 1.8,1 3.1,1c1.7,0 3.2,-0.5 4.6,-1.6l1.1,2.7c-0.7,0.6 -1.6,1 -2.7,1.4c-1.1,0.4 -2.1,0.5 -3.2,0.5c-2.5,0 -4.5,-0.7 -5.9,-2.1s-2.2,-3.3 -2.2,-5.8c0,-1.6 0.3,-2.9 0.9,-4.1c0.6,-1.2 1.5,-2.1 2.6,-2.8s2.4,-1 3.8,-1c2.1,0 3.7,0.7 5,2c1.2,1.3 1.8,3.2 1.8,5.6l0,1.1l0.2,0l0,0zm-9.2,-4.9c-0.6,0.7 -1,1.6 -1.2,2.9l7,0c0,-1.3 -0.4,-2.2 -0.9,-2.9c-0.6,-0.7 -1.4,-1 -2.4,-1s-1.9,0.3 -2.5,1l0,0z" id="svg_27"/>
     <path class="st2" d="m168.2,21.9l6.4,7.8l-4.6,0l-4,-5.1l-4,5.1l-4.6,0l6.4,-7.8l-6,-7.4l4.6,0l3.6,4.6l3.6,-4.6l4.6,0l-6,7.4z" id="svg_26"/>
     <path class="st2" d="m185.5,27l-0.2,2.9c-0.6,0.1 -1.2,0.1 -1.7,0.1c-2.1,0 -3.7,-0.5 -4.7,-1.5s-1.5,-2.5 -1.5,-4.4l0,-6.6l-2.9,0l0,-2.9l2.9,0l0,-4.5l3.9,0l0,4.5l4,0l0,2.9l-4,0l0,6.6c0,2 0.9,3 2.8,3c0.4,-0.1 0.9,-0.1 1.4,-0.1z" id="svg_25"/>
    </g>
   </g>
  </symbol>
 </defs>
 <g class="layer">
  <title>Layer 1</title>
  <g id="svg_21"/>
  <use id="svg_35" transform="matrix(0.773698 0 0 0.773698 7.58122 -0.497002)" x="18.254615" xlink:href="#svg_34" y="3.858699"/>
  <g id="svg_36"/>
 </g>
</svg>