<?xml version="1.0"?>
<svg width="195" height="37" xmlns="http://www.w3.org/2000/svg" xmlns:svg="http://www.w3.org/2000/svg" version="1.0">
 <style type="text/css">.st0{fill:url(#SVGID_1_);}
	.st1{fill:url(#SVGID_2_);}
	.st2{fill:#24384C;}</style>
 <g class="layer">
  <title>Layer 1</title>
  <g id="svg_5">
   <g id="svg_1">
    <linearGradient gradientTransform="translate(17 2.5) translate(11.2 4) scale(0.794894 0.794894) translate(-11.2 -4)" gradientUnits="userSpaceOnUse" id="SVGID_1_" x1="11.1983" x2="31.5278" y1="18.3998" y2="18.3998">
     <stop offset="0" stop-color="#007ADF"/>
     <stop offset="1" stop-color="#00ECBC"/>
    </linearGradient>
    <path class="st0" d="m28.2,29.392943l16.136345,-11.446472l-16.136345,-11.446472l0,22.892943z" id="svg_2"/>
    <g id="svg_3">
     <linearGradient gradientTransform="translate(17 2.5) translate(11.2 4) scale(0.794894 0.794894) translate(-11.2 -4)" gradientUnits="userSpaceOnUse" id="SVGID_2_" x1="21.3631" x2="41.6926" y1="18.3998" y2="18.3998">
      <stop offset="0" stop-color="#007ADF"/>
      <stop offset="1" stop-color="#00ECBC"/>
     </linearGradient>
     <polygon class="st1" id="svg_4" points="52.44426345825195,17.946471214294434 36.30791664123535,6.5 36.30791664123535,10.633447647094727 46.64153861999512,17.946471214294434 36.30791664123535,25.25949478149414 36.30791664123535,29.392942428588867 "/>
    </g>
   </g>
   <g id="svg_15">
    <g id="svg_16">
     <path class="st2" d="m59.439329,26.610815c-1.192341,-0.397447 -2.146213,-0.874383 -2.941107,-1.510298l1.033362,-2.305192c0.874383,0.635915 1.748766,1.112851 2.62315,1.430809c0.953873,0.317958 1.907745,0.476936 3.020597,0.476936c1.192341,0 2.146213,-0.238468 2.782129,-0.635915c0.635915,-0.397447 0.953873,-1.033362 0.953873,-1.748766c0,-0.635915 -0.317958,-1.192341 -0.874383,-1.510298c-0.635915,-0.317958 -1.589788,-0.635915 -3.020597,-0.953873c-1.430809,-0.317958 -2.62315,-0.635915 -3.497533,-1.112851c-0.874383,-0.397447 -1.589788,-0.953873 -2.066724,-1.589788s-0.715404,-1.430809 -0.715404,-2.464171s0.317958,-1.907745 0.874383,-2.782129c0.556426,-0.794894 1.35132,-1.430809 2.384682,-1.907745c1.033362,-0.476936 2.225703,-0.715404 3.497533,-0.715404c1.192341,0 2.384682,0.158979 3.497533,0.556426s1.987235,0.874383 2.702639,1.510298l-1.033362,2.305192c-1.510298,-1.27183 -3.259065,-1.828256 -5.16681,-1.828256c-1.112851,0 -1.987235,0.238468 -2.62315,0.715404c-0.635915,0.476936 -0.953873,1.112851 -0.953873,1.907745c0,0.635915 0.317958,1.192341 0.874383,1.589788c0.556426,0.397447 1.589788,0.715404 2.941107,1.033362c1.430809,0.317958 2.62315,0.715404 3.577022,1.112851c0.953873,0.397447 1.589788,0.953873 2.066724,1.510298c0.476936,0.635915 0.715404,1.430809 0.715404,2.384682c0,1.033362 -0.238468,1.987235 -0.794894,2.702639c-0.556426,0.794894 -1.35132,1.35132 -2.384682,1.828256c-1.033362,0.397447 -2.305192,0.635915 -3.656512,0.635915c-1.35132,-0.079489 -2.62315,-0.238468 -3.815491,-0.635915z" id="svg_17"/>
     <path class="st2" d="m79.94759,24.782559l-0.158979,2.305192c-0.476936,0.079489 -0.953873,0.079489 -1.35132,0.079489c-1.669277,0 -2.941107,-0.397447 -3.736001,-1.192341s-1.192341,-1.987235 -1.192341,-3.497533l0,-5.246299l-2.305192,0l0,-2.305192l2.305192,0l0,-3.577022l3.100086,0l0,3.577022l3.179575,0l0,2.305192l-3.179575,0l0,5.246299c0,1.589788 0.715404,2.384682 2.225703,2.384682c0.317958,-0.079489 0.715404,-0.079489 1.112851,-0.079489l0,0z" id="svg_18"/>
     <path class="st2" d="m90.678657,15.800258c0.794894,0.794894 1.27183,2.066724 1.27183,3.815491l0,7.313024l-2.941107,0l0,-1.828256c-0.317958,0.635915 -0.715404,1.112851 -1.35132,1.510298c-0.635915,0.397447 -1.27183,0.556426 -2.066724,0.556426s-1.510298,-0.158979 -2.225703,-0.476936c-0.635915,-0.317958 -1.192341,-0.794894 -1.589788,-1.35132s-0.556426,-1.192341 -0.556426,-1.907745c0,-0.874383 0.238468,-1.589788 0.715404,-2.066724s1.192341,-0.874383 2.225703,-1.112851s2.464171,-0.317958 4.212937,-0.317958l0.635915,0l0,-0.556426c0,-0.794894 -0.158979,-1.430809 -0.556426,-1.748766c-0.317958,-0.556426 -0.953873,-0.715404 -1.748766,-0.715404c-0.635915,0 -1.35132,0.079489 -1.987235,0.317958c-0.715404,0.238468 -1.35132,0.556426 -2.066724,0.953873l-0.874383,-2.146213c0.635915,-0.397447 1.510298,-0.794894 2.464171,-1.033362s1.828256,-0.397447 2.702639,-0.397447c1.669277,-0.079489 2.941107,0.397447 3.736001,1.192341l0,0zm-2.464171,8.266896c0.556426,-0.556426 0.794894,-1.27183 0.794894,-2.146213l0,-0.556426l-0.476936,0c-1.112851,0 -1.987235,0.079489 -2.54366,0.158979c-0.635915,0.079489 -1.033362,0.238468 -1.27183,0.556426c-0.238468,0.238468 -0.397447,0.556426 -0.397447,1.033362c0,0.556426 0.158979,0.953873 0.556426,1.27183s0.794894,0.476936 1.35132,0.476936c0.794894,0.079489 1.510298,-0.238468 1.987235,-0.794894z" id="svg_19"/>
     <path class="st2" d="m102.999512,17.151578l-1.828256,0.158979c-2.066724,0.238468 -3.100086,1.27183 -3.100086,3.100086l0,6.51813l-3.100086,0l0,-12.082387l2.941107,0l0,2.146213c0.635915,-1.430809 1.907745,-2.225703 3.89498,-2.384682l0.953873,-0.079489c0,0 0.238468,2.62315 0.238468,2.62315z" id="svg_20"/>
     <path class="st2" d="m112.935686,24.782559l-0.158979,2.305192c-0.476936,0.079489 -0.953873,0.079489 -1.35132,0.079489c-1.669277,0 -2.941107,-0.397447 -3.736001,-1.192341s-1.192341,-1.987235 -1.192341,-3.497533l0,-5.246299l-2.305192,0l0,-2.305192l2.305192,0l0,-3.577022l3.100086,0l0,3.577022l3.179575,0l0,2.305192l-3.179575,0l0,5.246299c0,1.589788 0.715404,2.384682 2.225703,2.384682c0.397447,-0.079489 0.715404,-0.079489 1.112851,-0.079489l0,0z" id="svg_21"/>
     <path class="st2" d="m126.766839,9.520597l3.020597,0l0,17.408176l-2.384682,0l-9.300258,-12.161876l0,12.161876l-2.941107,0l0,-17.408176l2.384682,0l9.300258,12.161876l0,-12.161876c0,0 -0.079489,0 -0.079489,0z" id="svg_22"/>
     <path class="st2" d="m143.857057,21.444005l-8.266896,0c0.079489,1.112851 0.397447,1.987235 1.033362,2.464171c0.556426,0.556426 1.430809,0.794894 2.464171,0.794894c1.35132,0 2.54366,-0.397447 3.656512,-1.27183l0.874383,2.146213c-0.556426,0.476936 -1.27183,0.794894 -2.146213,1.112851c-0.874383,0.317958 -1.669277,0.397447 -2.54366,0.397447c-1.987235,0 -3.577022,-0.556426 -4.689874,-1.669277s-1.748766,-2.62315 -1.748766,-4.610384c0,-1.27183 0.238468,-2.305192 0.715404,-3.259065c0.476936,-0.953873 1.192341,-1.669277 2.066724,-2.225703s1.907745,-0.794894 3.020597,-0.794894c1.669277,0 2.941107,0.556426 3.974469,1.589788c0.953873,1.033362 1.430809,2.54366 1.430809,4.451406l0,0.874383l0.158979,0l0,0zm-7.313024,-3.89498c-0.476936,0.556426 -0.794894,1.27183 -0.953873,2.305192l5.564257,0c0,-1.033362 -0.317958,-1.748766 -0.715404,-2.305192c-0.476936,-0.556426 -1.112851,-0.794894 -1.907745,-0.794894s-1.510298,0.238468 -1.987235,0.794894l0,0z" id="svg_23"/>
     <path class="st2" d="m152.998336,20.7286l5.087321,6.200172l-3.656512,0l-3.179575,-4.053959l-3.179575,4.053959l-3.656512,0l5.087321,-6.200172l-4.769363,-5.882215l3.656512,0l2.861618,3.656512l2.861618,-3.656512l3.656512,0c0,0 -4.769363,5.882215 -4.769363,5.882215z" id="svg_24"/>
     <path class="st2" d="m166.75,24.782559l-0.158979,2.305192c-0.476936,0.079489 -0.953873,0.079489 -1.35132,0.079489c-1.669277,0 -2.941107,-0.397447 -3.736001,-1.192341s-1.192341,-1.987235 -1.192341,-3.497533l0,-5.246299l-2.305192,0l0,-2.305192l2.305192,0l0,-3.577022l3.100086,0l0,3.577022l3.179575,0l0,2.305192l-3.179575,0l0,5.246299c0,1.589788 0.715404,2.384682 2.225703,2.384682c0.317958,-0.079489 0.715404,-0.079489 1.112851,-0.079489z" id="svg_25"/>
    </g>
   </g>
  </g>
 </g>
</svg>